inDegrees=yes
name=ik_S55_A04_T02
DataType=double
version=3
OpenSimVersion=4.3-2021-08-27-4bc7ad9
endheader
time	pelvis_tilt	pelvis_list	pelvis_rotation	pelvis_tx	pelvis_ty	pelvis_tz	hip_flexion_r	hip_adduction_r	hip_rotation_r	knee_angle_r	knee_angle_r_beta	ankle_angle_r	subtalar_angle_r	mtp_angle_r	hip_flexion_l	hip_adduction_l	hip_rotation_l	knee_angle_l	knee_angle_l_beta	ankle_angle_l	subtalar_angle_l	mtp_angle_l	lumbar_extension	lumbar_bending	lumbar_rotation	arm_flex_r	arm_add_r	arm_rot_r	elbow_flex_r	pro_sup_r	wrist_flex_r	wrist_dev_r	arm_flex_l	arm_add_l	arm_rot_l	elbow_flex_l	pro_sup_l	wrist_flex_l	wrist_dev_l
6.159999999999957	12.87883105852968	6.701350039233571	21.03517595934708	0	0.9399999999999999	0	59.56473205488629	1.002091927333889	-11.52795732381868	88.35032160381101	1.542004007182379	0	0	0	64.41647561080816	-16.02495022107741	1.790913344262741	96.96982668892376	1.692442750809991	0	0	0	0	0	0	15.80776055998261	-15.80776055998261	2.646978339648474	52.6590540968684	87.35302181304679	0	0	15.80776055998261	-15.80776055998261	2.646978339648474	52.6590540968684	87.35302181260897	0	0
6.179999999999956	12.90312261927687	6.692146278809596	21.03589235775096	0	0.9399999999999999	0	58.87279816362291	1.360398674490981	-12.07342124935951	87.45031807146766	1.526295982263409	0	0	0	64.38321317573742	-16.02285100966376	1.840485681126737	97.21494291367888	1.696720835982026	0	0	0	0	0	0	15.81462014355476	-15.81462014355476	2.648038832173437	52.67550170664022	87.35196132058192	0	0	15.81462014355476	-15.81462014355476	2.648038832173437	52.67550170664022	87.35196132014428	0	0
6.199999999999956	11.86917802329397	6.110505725440863	21.05945636073876	0	0.9399999999999999	0	58.71932796982118	1.916214840665852	-12.57514080239256	86.5395014716679	1.510399233715083	0	0	0	64.38160179810421	-15.63903078833327	1.527621165542698	96.46778330242007	1.683680440727639	0	0	0	0	0	0	15.96989393245746	-15.96989393245746	2.668782930752336	52.97695549576103	87.33121722315072	0	0	15.96989393245746	-15.96989393245746	2.668782930752336	52.97695549576103	87.33121722271697	0	0
6.219999999999955	11.35032490147366	5.792853006932346	21.0494569808021	0	0.9399999999999999	0	58.5206950154491	2.105468242413938	-12.67290202952021	86.11438303204309	1.50297951723269	0	0	0	65.00317940749599	-15.71253029011238	1.636573250806025	96.87952629217398	1.69086671157085	0	0	0	0	0	0	15.97822264340994	-15.97822264340994	2.670068486874585	52.99684462626333	87.32993166710131	0	0	15.97822264340994	-15.97822264340994	2.670068486874585	52.99684462626333	87.3299316666678	0	0
6.239999999999955	10.70258913012901	5.49963567615219	21.07858701338643	0	0.9399999999999999	0	59.23043654814038	2.157280237578582	-12.61873637736576	86.71345860114369	1.513435358381754	0	0	0	64.34523695149285	-15.25074107251358	1.025394027084203	96.02615208494113	1.67597252190304	0	0	0	0	0	0	15.98496501602162	-15.98496501602162	2.671108377632542	53.012926141151	87.3288917764022	0	0	15.98496501602162	-15.98496501602162	2.671108377632542	53.012926141151	87.32889177596896	0	0
6.259999999999954	10.38338415250995	5.371212777632064	21.06979959808862	0	0.9399999999999999	0	57.90721473648474	2.38100251314038	-12.87880199118086	85.56038696893026	1.493310461888284	0	0	0	63.88497063820122	-15.07439076728327	0.7033043928083396	95.65289962543281	1.669458037543453	0	0	0	0	0	0	16.15453871440207	-16.15453871440207	2.693729727904628	53.34139042071702	87.30627042738128	0	0	16.15453871440207	-16.15453871440207	2.693729727904628	53.34139042071702	87.30627042695224	0	0
6.279999999999954	9.833653734040196	5.161820831352907	21.06638196001257	0	0.9399999999999999	0	57.55758018352178	2.408073972894951	-12.92168693939087	84.94367585045337	1.482546822337206	0	0	0	62.68532149613904	-14.93239201656989	0.3586476794477674	94.42610505524996	1.648046433048174	0	0	0	0	0	0	16.34226406723705	-16.34226406723705	2.718599686105891	53.70134756213395	87.28140047055386	0	0	16.34226406723705	-16.34226406723705	2.718599686105891	53.70134756213395	87.28140047012944	0	0
6.299999999999954	9.271164653743254	4.884358774067685	21.10778834641048	0	0.9399999999999999	0	57.23021401832858	2.382833999298769	-12.99752241692273	84.32948139971147	1.471827106924281	0	0	0	62.37849412012743	-14.86350509820409	0.1781347323760464	94.13359578055503	1.642941183112127	0	0	0	0	0	0	16.34839924865619	-16.34839924865619	2.719539708597818	53.71579139435465	87.28046044811514	0	0	16.34839924865619	-16.34839924865619	2.719539708597818	53.71579139435465	87.2804604476909	0	0
6.319999999999953	9.010748300707149	4.750679934606491	21.11712663910775	0	0.9399999999999999	0	56.48859163691478	2.323862955381527	-13.03730657198622	83.42708029980453	1.456077236557287	0	0	0	61.70393558608158	-14.84734465599718	-0.08111781388691791	93.45631892998345	1.631120472122115	0	0	0	0	0	0	16.35477260126388	-16.35477260126388	2.720515883481459	53.73078735724853	87.2794842732866	0	0	16.35477260126388	-16.35477260126388	2.720515883481459	53.73078735724853	87.27948427286272	0	0
6.339999999999953	8.186100695602477	4.335767411322567	21.20295418411204	0	0.9399999999999999	0	57.40644022610834	2.351465706700013	-13.12021334730814	83.41301153297293	1.45583169025438	0	0	0	61.61148629917446	-14.82089669233727	-0.2150153988283798	92.64740839844232	1.617002319992665	0	0	0	0	0	0	16.3630732228757	-16.3630732228757	2.721786465627002	53.75029940688806	87.27821369121293	0	0	16.3630732228757	-16.3630732228757	2.721786465627002	53.75029940688806	87.27821369078926	0	0
6.359999999999952	7.872087298075973	4.2090177898268	21.2121770766101	0	0.9399999999999999	0	57.73296814094169	2.385837294630594	-13.10144768413202	83.81963393717596	1.462928590020098	0	0	0	61.96069134368781	-14.81641602213434	-0.2339430034752615	92.78359644981229	1.619379249890946	0	0	0	0	0	0	16.36730747425931	-16.36730747425931	2.722429574760974	53.76014589131425	87.27757058211526	0	0	16.36730747425931	-16.36730747425931	2.722429574760974	53.76014589131425	87.27757058169178	0	0
6.379999999999952	6.980941007956324	3.903893279697015	21.21324993933104	0	0.9399999999999999	0	58.6812306411136	2.420501678968889	-13.03613753186756	83.93665835227256	1.464971051368755	0	0	0	60.73631442240667	-14.74735972861863	-0.9131111907786745	90.884655734395	1.586236482106738	0	0	0	0	0	0	16.3774552515378	-16.3774552515378	2.723981500301323	53.78396335928394	87.27601865666266	0	0	16.3774552515378	-16.3774552515378	2.723981500301323	53.78396335928394	87.2760186562395	0	0
6.399999999999952	6.673974644607922	3.826262307156772	21.2002511124212	0	0.9399999999999999	0	55.85894633559859	2.135759569925935	-13.30295279036301	80.81029728086084	1.410405757066442	0	0	0	61.02996776635046	-14.75634187999055	-0.9814513860589044	90.86567853869973	1.58590526755906	0	0	0	0	0	0	16.64561047007172	-16.64561047007172	2.7593452443148	54.29466219540998	87.24065491460095	0	0	16.64561047007172	-16.64561047007172	2.7593452443148	54.29466219540998	87.2406549141843	0	0
6.419999999999951	6.101586334865795	3.702117472350485	21.1954183080264	0	0.9399999999999999	0	55.34554757961049	1.94948536078639	-13.26870375144706	79.8913738438837	1.394367517517449	0	0	0	59.39211500290825	-14.60183361344515	-1.505928491264216	88.85999560087997	1.550899496543032	0	0	0	0	0	0	16.89011641594479	-16.89011641594479	2.79136064802508	54.75559078196658	87.20863951265532	0	0	16.89011641594479	-16.89011641594479	2.79136064802508	54.75559078196658	87.20863951224472	0	0
6.439999999999951	5.547667167377348	3.527325042496928	21.17861119001343	0	0.9399999999999999	0	54.8501943797836	1.763080370253068	-13.23373452745274	78.865236458753	1.376458041569113	0	0	0	58.80644338112941	-14.51547739171097	-1.888720711459404	87.72429843003604	1.531077841606221	0	0	0	0	0	0	16.89610684065791	-16.89610684065791	2.792267827561579	54.76939290686485	87.20773233316996	0	0	16.89610684065791	-16.89610684065791	2.792267827561579	54.76939290686485	87.20773233275945	0	0
6.45999999999995	5.088685348681738	3.351970236566872	21.15093113538043	0	0.9399999999999999	0	54.21716119229885	1.614327545227279	-13.22966759207217	77.70931150244378	1.356283345175546	0	0	0	59.28902247228196	-14.54985648087727	-1.939402471453619	87.70294338858263	1.530705125820959	0	0	0	0	0	0	16.90393603160663	-16.90393603160663	2.793453092810906	54.78742218482324	87.20654706798743	0	0	16.90393603160663	-16.90393603160663	2.793453092810906	54.78742218482324	87.20654706757718	0	0
6.47999999999995	4.198095234939074	3.205886551333498	21.02934076927465	0	0.9399999999999999	0	54.05823983414423	1.411764832508215	-13.02136952594722	76.60163732036521	1.336950783658939	0	0	0	58.94234018174652	-14.50091406435937	-2.614906530366009	86.55270893473252	1.510629747431396	0	0	0	0	0	0	16.91042332865194	-16.91042332865194	2.794435126465579	54.80235800789292	87.20556503438819	0	0	16.91042332865194	-16.91042332865194	2.794435126465579	54.80235800789292	87.20556503397805	0	0
6.499999999999949	3.782753738722191	3.200314114942329	20.92548753366249	0	0.9399999999999999	0	53.39194717297526	1.187731099723612	-12.9260322702193	75.47848155767124	1.317348017587181	0	0	0	59.28126661201763	-14.51856993061616	-2.825498489987649	86.47553210107583	1.509282757577823	0	0	0	0	0	0	16.91560586064579	-16.91560586064579	2.795218487836409	54.81426523522034	87.20478167306155	0	0	16.91560586064579	-16.91560586064579	2.795218487836409	54.81426523522034	87.20478167265155	0	0
